# xmcd
# Track frame offsets:
# 150
# 15790
# 35985
# 51054
# 65997
# 77455
# 92134
# 104581
# 118020
# 135897
# 149162
# 155929
# 174923
# 185390
# 200656
# 214801
# 229809
#
# Disc length: 3340 seconds
# Revision: 0
# Processed by: cddbd v1.5.2PL0 Copyright (c) Steve Scherf et al.
# Submitted via: VisiTrax 2.11.3.279 - For more info visit www.synapsa.com
#
DISCID=f70d0a11
DTITLE=Randy Travis - Hymns
DYEAR=2014
DGENRE=
TTITLE0=Blessed Assurance
TTITLE1=How Great Thou Art
TTITLE2=In The Garden
TTITLE3=Softly And Tenderly
TTITLE4=Nothing But Blood
TTITLE5=Shall We Bather At The River
TTITLE6=O,How I Love Jesus
TTITLE7=I´ll Fly Away
TTITLE8=Peace In The Valley
TTITLE9=The Unclouded Day
TTITLE10=Room At The Cross for You
TTITLE11=Precious Memories
TTITLE12=He´s Got The Whole World In His Hands
TTITLE13=Since Jesus Came Into My Heart
TTITLE14=Are You  Washed In The Blood
TTITLE15=Precious Lord Take My Hand
TTITLE16=Just A Closer Walk With Rhee ( with John Anderson)
EXTD=
EXTT0=
EXTT1=
EXTT2=
EXTT3=
EXTT4=
EXTT5=
EXTT6=
EXTT7=
EXTT8=
EXTT9=
EXTT10=
EXTT11=
EXTT12=
EXTT13=
EXTT14=
EXTT15=
EXTT16=
PLAYORDER=
